<mxfile host="app.diagrams.net" modified="2022-05-19T09:17:05.714Z" agent="5.0 (Macintosh)" etag="JnFPE8uJPnZSEmwxrJL8" version="18.0.7" type="github">
  <diagram id="sIMneq1X15ZrJVdeWBK4" name="Page-1">
    <mxGraphModel dx="2139" dy="806" grid="1" gridSize="10" guides="1" tooltips="1" connect="1" arrows="1" fold="1" page="1" pageScale="1" pageWidth="850" pageHeight="1100" math="0" shadow="0">
      <root>
        <mxCell id="0" />
        <mxCell id="1" parent="0" />
        <mxCell id="Ae2RFYdZyI68Ix3t2ft8-5" style="edgeStyle=orthogonalEdgeStyle;rounded=0;orthogonalLoop=1;jettySize=auto;html=1;exitX=0;exitY=0.5;exitDx=0;exitDy=0;dashed=1;entryX=0.667;entryY=1;entryDx=0;entryDy=0;entryPerimeter=0;" parent="1" source="Ae2RFYdZyI68Ix3t2ft8-1" target="Ae2RFYdZyI68Ix3t2ft8-9" edge="1">
          <mxGeometry relative="1" as="geometry">
            <mxPoint x="260" y="150" as="targetPoint" />
            <Array as="points">
              <mxPoint x="30" y="335" />
            </Array>
          </mxGeometry>
        </mxCell>
        <mxCell id="Ae2RFYdZyI68Ix3t2ft8-12" style="edgeStyle=orthogonalEdgeStyle;rounded=0;orthogonalLoop=1;jettySize=auto;html=1;exitX=1;exitY=0.5;exitDx=0;exitDy=0;entryX=0;entryY=0.25;entryDx=0;entryDy=0;" parent="1" source="Ae2RFYdZyI68Ix3t2ft8-1" target="Ae2RFYdZyI68Ix3t2ft8-10" edge="1">
          <mxGeometry relative="1" as="geometry">
            <Array as="points">
              <mxPoint x="280" y="335" />
              <mxPoint x="280" y="630" />
            </Array>
          </mxGeometry>
        </mxCell>
        <mxCell id="Ae2RFYdZyI68Ix3t2ft8-1" value="Razorpay" style="whiteSpace=wrap;html=1;imageAspect=1;fixDash=0;expand=1;" parent="1" vertex="1">
          <mxGeometry x="95" y="320" width="105" height="30" as="geometry" />
        </mxCell>
        <mxCell id="Ae2RFYdZyI68Ix3t2ft8-6" style="edgeStyle=orthogonalEdgeStyle;rounded=0;orthogonalLoop=1;jettySize=auto;html=1;dashed=1;entryX=0.5;entryY=1;entryDx=0;entryDy=0;" parent="1" source="Ae2RFYdZyI68Ix3t2ft8-2" target="Ae2RFYdZyI68Ix3t2ft8-9" edge="1">
          <mxGeometry relative="1" as="geometry">
            <mxPoint x="260" y="150" as="targetPoint" />
          </mxGeometry>
        </mxCell>
        <mxCell id="Ae2RFYdZyI68Ix3t2ft8-13" style="edgeStyle=orthogonalEdgeStyle;rounded=0;orthogonalLoop=1;jettySize=auto;html=1;exitX=1;exitY=0.5;exitDx=0;exitDy=0;entryX=0;entryY=0.5;entryDx=0;entryDy=0;" parent="1" source="Ae2RFYdZyI68Ix3t2ft8-2" target="Ae2RFYdZyI68Ix3t2ft8-10" edge="1">
          <mxGeometry relative="1" as="geometry">
            <Array as="points">
              <mxPoint x="260" y="415" />
              <mxPoint x="260" y="650" />
            </Array>
          </mxGeometry>
        </mxCell>
        <mxCell id="_aDxNE8Is3u3Tfrv5eCa-1" style="edgeStyle=orthogonalEdgeStyle;rounded=0;orthogonalLoop=1;jettySize=auto;html=1;exitX=1;exitY=0.25;exitDx=0;exitDy=0;entryX=0;entryY=0.25;entryDx=0;entryDy=0;" edge="1" parent="1" source="Ae2RFYdZyI68Ix3t2ft8-2" target="Ae2RFYdZyI68Ix3t2ft8-18">
          <mxGeometry relative="1" as="geometry">
            <Array as="points">
              <mxPoint x="350" y="407" />
              <mxPoint x="350" y="290" />
            </Array>
          </mxGeometry>
        </mxCell>
        <mxCell id="Ae2RFYdZyI68Ix3t2ft8-2" value="Firebase Auth" style="whiteSpace=wrap;html=1;imageAspect=0;" parent="1" vertex="1">
          <mxGeometry x="95" y="400" width="105" height="30" as="geometry" />
        </mxCell>
        <mxCell id="Ae2RFYdZyI68Ix3t2ft8-7" style="edgeStyle=orthogonalEdgeStyle;rounded=0;orthogonalLoop=1;jettySize=auto;html=1;dashed=1;entryX=0.326;entryY=0.985;entryDx=0;entryDy=0;entryPerimeter=0;" parent="1" source="Ae2RFYdZyI68Ix3t2ft8-3" target="Ae2RFYdZyI68Ix3t2ft8-9" edge="1">
          <mxGeometry relative="1" as="geometry">
            <mxPoint x="260" y="150" as="targetPoint" />
            <Array as="points">
              <mxPoint x="-10" y="485" />
              <mxPoint x="-10" y="170" />
              <mxPoint x="-11" y="170" />
            </Array>
          </mxGeometry>
        </mxCell>
        <mxCell id="Ae2RFYdZyI68Ix3t2ft8-14" style="edgeStyle=orthogonalEdgeStyle;rounded=0;orthogonalLoop=1;jettySize=auto;html=1;exitX=1;exitY=0.5;exitDx=0;exitDy=0;entryX=0.02;entryY=0.695;entryDx=0;entryDy=0;entryPerimeter=0;" parent="1" source="Ae2RFYdZyI68Ix3t2ft8-3" target="Ae2RFYdZyI68Ix3t2ft8-10" edge="1">
          <mxGeometry relative="1" as="geometry">
            <Array as="points">
              <mxPoint x="240" y="485" />
              <mxPoint x="240" y="666" />
              <mxPoint x="347" y="666" />
            </Array>
          </mxGeometry>
        </mxCell>
        <mxCell id="Ae2RFYdZyI68Ix3t2ft8-3" value="FreshDesk" style="whiteSpace=wrap;html=1;imageAspect=0;" parent="1" vertex="1">
          <mxGeometry x="95" y="470" width="105" height="30" as="geometry" />
        </mxCell>
        <mxCell id="Ae2RFYdZyI68Ix3t2ft8-8" style="edgeStyle=orthogonalEdgeStyle;rounded=0;orthogonalLoop=1;jettySize=auto;html=1;exitX=1;exitY=0.5;exitDx=0;exitDy=0;dashed=1;entryX=0.164;entryY=0.985;entryDx=0;entryDy=0;entryPerimeter=0;" parent="1" source="Ae2RFYdZyI68Ix3t2ft8-4" target="Ae2RFYdZyI68Ix3t2ft8-9" edge="1">
          <mxGeometry relative="1" as="geometry">
            <mxPoint x="260" y="150" as="targetPoint" />
            <Array as="points">
              <mxPoint x="-30" y="575" />
              <mxPoint x="-30" y="160" />
            </Array>
          </mxGeometry>
        </mxCell>
        <mxCell id="Ae2RFYdZyI68Ix3t2ft8-15" style="edgeStyle=orthogonalEdgeStyle;rounded=0;orthogonalLoop=1;jettySize=auto;html=1;exitX=1;exitY=0.5;exitDx=0;exitDy=0;entryX=-0.002;entryY=0.884;entryDx=0;entryDy=0;entryPerimeter=0;" parent="1" source="Ae2RFYdZyI68Ix3t2ft8-4" target="Ae2RFYdZyI68Ix3t2ft8-10" edge="1">
          <mxGeometry relative="1" as="geometry">
            <Array as="points">
              <mxPoint x="220" y="575" />
              <mxPoint x="220" y="680" />
              <mxPoint x="345" y="680" />
            </Array>
          </mxGeometry>
        </mxCell>
        <mxCell id="_aDxNE8Is3u3Tfrv5eCa-2" style="edgeStyle=orthogonalEdgeStyle;rounded=0;orthogonalLoop=1;jettySize=auto;html=1;exitX=1;exitY=0.25;exitDx=0;exitDy=0;entryX=0;entryY=0.75;entryDx=0;entryDy=0;" edge="1" parent="1" source="Ae2RFYdZyI68Ix3t2ft8-4" target="Ae2RFYdZyI68Ix3t2ft8-18">
          <mxGeometry relative="1" as="geometry" />
        </mxCell>
        <mxCell id="Ae2RFYdZyI68Ix3t2ft8-4" value="Supabase DB" style="whiteSpace=wrap;html=1;imageAspect=0;" parent="1" vertex="1">
          <mxGeometry x="90" y="560" width="105" height="30" as="geometry" />
        </mxCell>
        <mxCell id="Ae2RFYdZyI68Ix3t2ft8-11" style="edgeStyle=orthogonalEdgeStyle;rounded=0;orthogonalLoop=1;jettySize=auto;html=1;entryX=0.5;entryY=0;entryDx=0;entryDy=0;dashed=1;" parent="1" source="Ae2RFYdZyI68Ix3t2ft8-9" target="Ae2RFYdZyI68Ix3t2ft8-10" edge="1">
          <mxGeometry relative="1" as="geometry">
            <Array as="points">
              <mxPoint x="385" y="145" />
            </Array>
          </mxGeometry>
        </mxCell>
        <mxCell id="Ae2RFYdZyI68Ix3t2ft8-9" value="Doppler (for Secrets)" style="rounded=0;whiteSpace=wrap;html=1;" parent="1" vertex="1">
          <mxGeometry x="-50" y="130" width="120" height="30" as="geometry" />
        </mxCell>
        <mxCell id="Ae2RFYdZyI68Ix3t2ft8-17" value="accessed via user auth" style="edgeStyle=orthogonalEdgeStyle;rounded=0;orthogonalLoop=1;jettySize=auto;html=1;exitX=1;exitY=0.75;exitDx=0;exitDy=0;" parent="1" source="Ae2RFYdZyI68Ix3t2ft8-10" target="Ae2RFYdZyI68Ix3t2ft8-16" edge="1">
          <mxGeometry relative="1" as="geometry" />
        </mxCell>
        <mxCell id="Ae2RFYdZyI68Ix3t2ft8-10" value="&lt;div&gt;App Backend&lt;/div&gt;&lt;div&gt;(poem-openapi)&lt;br&gt;&lt;/div&gt;" style="whiteSpace=wrap;html=1;aspect=fixed;" parent="1" vertex="1">
          <mxGeometry x="345" y="610" width="80" height="80" as="geometry" />
        </mxCell>
        <mxCell id="Ae2RFYdZyI68Ix3t2ft8-16" value="&lt;div&gt;Frontend&lt;/div&gt;&lt;div&gt;(Flutter)&lt;br&gt;&lt;/div&gt;" style="whiteSpace=wrap;html=1;aspect=fixed;" parent="1" vertex="1">
          <mxGeometry x="650" y="510" width="80" height="80" as="geometry" />
        </mxCell>
        <mxCell id="Ae2RFYdZyI68Ix3t2ft8-18" value="&lt;div&gt;Dashboard&lt;/div&gt;&lt;div&gt;(Nuxt)&lt;br&gt;&lt;/div&gt;" style="whiteSpace=wrap;html=1;aspect=fixed;" parent="1" vertex="1">
          <mxGeometry x="650" y="270" width="80" height="80" as="geometry" />
        </mxCell>
      </root>
    </mxGraphModel>
  </diagram>
</mxfile>
